<svg width="1069" height="720" viewBox="0 0 1069 720" fill="none" xmlns="http://www.w3.org/2000/svg">
<path d="M1005.54 383.943C973.613 275.847 748.967 275.847 609.196 179.028C523.309 119.537 435.787 56.896 335.495 24.0785C282.701 6.8144 226.909 -1.11778 171.39 0.126487C130.121 1.05968 54.1229 0.282018 26.3245 37.1822C14.2551 53.2021 12.3085 72.1382 15.8903 92.0853C23.9495 136.84 59.8851 186.688 71.5262 220.128C86.1262 262.083 95.5481 309.015 93.835 353.419C92.9785 376.283 89.2409 417.577 71.9155 434.88C14.6834 536.365 -70.1914 661.958 103.452 693.842C248.634 720.516 344.8 704.496 443.885 680.116C441.354 649.204 434.892 615.687 434.892 615.687L435.203 615.609L420.408 536.715C286.633 537.376 160.995 593.29 97.3001 562.067C32.3592 530.221 143.553 428.658 183.265 355.558C222.977 282.457 92.1609 227.632 84.7635 168.141C77.3662 108.65 122.023 82.9088 173.532 66.6556C233.878 47.6029 369.367 112.538 464.753 179.417C560.14 246.296 684.338 282.846 816.205 328.573C930.825 368.312 876.279 434.88 772.327 492.466C776.026 496.898 779.063 501.875 781.165 507.241C781.749 508.68 785.214 524.933 784.513 524.816V524.855C784.513 524.894 784.513 524.933 784.513 524.972C784.513 527.655 784.28 530.299 783.852 532.865L781.048 567.16C908.594 511.596 1022.94 442.812 1005.54 383.943Z" fill="#FFEEDB"/>
<path d="M415.269 509.458C415.269 509.419 415.269 509.341 415.269 509.302C414.491 509.302 415.737 502.77 416.944 497.249C276.589 498.571 228.934 496.043 264.247 425.548C300.844 352.447 293.719 317.53 268.919 233.465C243.223 146.366 431.271 204.691 553.911 263.405C643.263 306.176 691.074 341.521 706.063 385.07C708.905 384.059 711.903 383.554 715.018 383.554C732.616 383.554 746.865 400.702 746.865 421.854C746.865 427.998 745.697 434.297 743.128 439.935C738.806 449.306 732.032 456.771 733.005 467.697C733.083 468.436 733.2 469.253 733.706 469.797C734.134 470.225 734.757 470.419 735.341 470.614C749.162 474.891 761.582 480.218 771.393 491.338C771.705 491.688 772.016 492.077 772.328 492.427C876.28 434.841 930.826 368.312 816.206 328.534C684.338 282.808 560.141 246.257 464.754 179.378C369.367 112.499 233.879 47.5642 173.532 66.6169C122.023 82.8701 77.3663 108.611 84.7636 168.102C92.161 227.593 222.977 282.419 183.265 355.519C143.553 428.62 32.3593 530.221 97.3002 562.028C160.995 593.251 286.633 537.337 420.409 536.676L419.163 530.144C416.671 523.689 415.269 516.69 415.269 509.458Z" fill="#FFE2C0"/>
<path d="M553.911 263.406C431.271 204.692 243.222 146.367 268.919 233.465C293.719 317.531 300.844 352.448 264.247 425.549C228.934 496.044 276.588 498.571 416.944 497.249C417.761 493.633 418.54 490.445 418.773 489.822C421.148 483.329 424.691 477.302 429.052 471.936C438.084 460.854 451.244 452.922 464.559 448.062C465.727 447.634 467.012 447.129 467.44 445.962C467.674 445.301 467.596 444.562 467.518 443.901C467.207 441.491 466.856 439.08 466.428 436.669C456.539 435.269 442.172 432.431 442.172 432.431C444.859 426.715 444.508 397.203 442.172 386.121C439.836 375.039 443.185 356.57 460.666 342.805C478.147 329.04 489.905 340.122 489.905 340.122C526.814 329.974 527.554 370.723 526.191 389.309C526.113 391.992 525.879 394.714 525.412 397.397C524.517 409.334 528.877 433.442 528.877 433.442C525.685 434.531 518.326 435.386 509.956 436.008C509.722 437.913 509.644 439.935 509.839 442.074C509.917 442.968 510.072 443.901 510.695 444.562C511.201 445.068 511.902 445.301 512.603 445.534C521.675 448.334 530.201 451.522 537.988 456.072C547.76 446.895 560.063 440.091 572.405 435.541C573.729 435.036 575.247 434.453 575.753 433.092C576.026 432.314 575.948 431.498 575.831 430.681C574.235 418.666 571.899 406.846 565.553 396.347C559.946 387.132 556.909 376.789 556.909 365.979C556.909 337.128 576.376 313.72 600.359 313.72C624.342 313.72 643.809 337.128 643.809 365.979C643.809 374.378 642.213 382.971 638.67 390.631C632.752 403.424 623.525 413.572 624.887 428.543C624.965 429.553 625.16 430.681 625.861 431.42C626.445 432.042 627.262 432.275 628.08 432.548C646.924 438.38 663.899 445.69 677.253 460.854C680.951 465.054 684.222 469.642 686.908 474.58C690.529 472.053 693.76 469.253 696.603 466.143C695.435 458.444 693.605 450.939 689.517 444.135C685.429 437.369 683.171 429.826 683.171 421.893C683.171 404.474 692.826 389.776 706.063 385.11C691.074 341.522 643.264 306.177 553.911 263.406Z" fill="#FFCD9A"/>
<path d="M939.742 366.834C939.742 366.834 947.918 394.83 945.971 402.995C944.024 411.161 937.016 414.272 937.016 414.272L929.035 369.439L939.742 366.834Z" fill="#FFD6A8"/>
<path d="M802.696 349.337C802.696 349.337 799.192 350.115 789.848 356.725C780.503 363.335 775.442 375.389 776.61 377.722C777.778 380.055 782.45 373.833 782.45 373.833C782.45 373.833 774.663 386.276 778.167 391.331C781.671 396.386 806.589 379.277 814.765 366.446C822.941 353.614 802.696 349.337 802.696 349.337Z" fill="#FFD6A8"/>
<path d="M822.162 532.477C822.162 532.477 824.109 546.864 828.002 557.362C831.896 567.861 841.629 664.68 841.629 664.68C841.629 664.68 819.437 680.622 811.261 683.344C803.085 686.066 786.344 687.232 785.176 693.843C784.008 700.453 817.49 709.007 828.781 705.896C840.072 702.786 852.92 698.897 864.21 698.897C875.501 698.897 876.28 682.178 872.776 675.179C869.272 668.18 865.378 652.626 865.378 642.517C865.378 632.407 876.669 556.196 871.218 542.587C865.768 528.978 822.162 532.477 822.162 532.477Z" fill="#FFD6A8"/>
<path d="M911.71 524.7C911.71 524.7 915.603 545.308 938.963 562.806C962.323 580.303 1012.16 626.963 1019.94 631.24C1019.94 631.24 1019.17 651.46 1019.17 665.458C1019.17 679.455 1011.38 682.177 1011.38 689.176C1011.38 696.175 1023.45 691.509 1029.29 685.677C1035.13 679.844 1039.8 668.568 1046.81 658.07C1053.82 647.571 1067.05 629.685 1042.14 616.854C1042.14 616.854 1035.52 613.743 1025.78 602.467C1016.05 591.191 978.675 536.365 958.43 525.089C938.185 513.813 921.833 509.925 911.71 524.7Z" fill="#FFD6A8"/>
<path d="M909.374 284.402C909.374 284.402 928.84 307.343 942.078 368.001C942.078 368.001 929.23 373.833 925.336 373.833C921.443 373.833 909.374 284.402 909.374 284.402Z" fill="#FF993B"/>
<path d="M796.467 207.802C796.467 207.802 789.848 213.245 786.344 213.245C786.344 213.245 792.184 224.522 792.574 237.353C792.963 250.184 798.024 216.745 796.467 207.802Z" fill="#FF993B"/>
<path d="M746.632 111.76C746.632 111.76 746.321 112.266 745.854 113.238C742.116 119.343 740.053 126.264 739.78 133.263C739.741 134.429 739.741 135.596 739.78 136.762C740.442 143.8 743.712 150.449 745.192 157.331C745.386 158.304 745.581 159.315 745.698 160.325C745.776 161.725 746.009 163.086 746.165 164.447C746.321 165.808 746.438 167.169 746.243 168.53C747.528 168.413 748.696 168.569 749.786 168.958C760.259 176.306 766.488 191.86 781.789 190.071C782.723 190.071 783.658 189.993 784.553 189.877C787.357 189.566 790.16 188.788 792.924 187.544C792.924 187.544 793.469 188.088 794.17 189.527C795.571 192.365 797.44 198.703 796.428 210.874C794.871 229.149 848.599 187.933 848.599 187.933C848.599 187.933 835.751 175.49 826.796 173.935C826.796 173.935 817.452 171.213 819.788 164.214C822.124 157.215 827.964 139.329 822.903 126.108C817.841 112.888 806.161 95.3906 790.977 91.5023C775.832 87.6528 754.03 94.263 746.632 111.76Z" fill="#FFD6A8"/>
<path d="M765.164 180.778C764.892 180.778 764.658 180.623 764.58 180.351C764.503 180.04 764.697 179.728 765.009 179.651C765.164 179.612 768.668 178.601 769.447 173.585C769.486 173.274 769.797 173.041 770.109 173.079C770.42 173.118 770.654 173.429 770.615 173.74C769.72 179.534 765.515 180.701 765.32 180.739C765.281 180.778 765.242 180.778 765.164 180.778Z" fill="#FF9C64"/>
<path d="M752.958 150.198C753.89 149.935 754.337 148.634 753.957 147.29C753.578 145.947 752.515 145.071 751.584 145.333C750.652 145.596 750.205 146.897 750.585 148.241C750.964 149.584 752.027 150.46 752.958 150.198Z" fill="#493100"/>
<path d="M792.573 187.583C792.573 187.583 796.466 186.027 800.36 180.584C800.36 180.584 798.764 186.922 794.714 191.16C794.714 191.16 794.52 189.527 792.573 187.583Z" fill="#FFC284"/>
<path d="M815.544 107.483C820.995 107.094 827.224 94.6516 807.757 82.2089C792.067 72.1771 784.475 82.1312 782.1 86.3306C781.477 81.7423 785.293 75.21 785.293 75.21C781.789 79.176 780.076 86.2528 779.686 88.0803C740.519 90.2578 744.296 115.61 744.296 115.61C800.749 102 800.749 140.884 800.749 140.884C822.163 134.662 810.093 154.882 810.093 154.882C810.21 155.348 810.327 155.776 810.444 156.243C812.858 163.864 819.866 167.285 819.866 167.285C843.693 139.678 815.544 107.483 815.544 107.483Z" fill="#E6E6E6"/>
<path d="M815.544 107.483C815.544 107.483 819.204 107.677 820.683 102.739C820.683 102.739 809.704 97.7621 800.36 95.0403C800.36 95.0403 808.536 99.3174 815.544 107.483Z" fill="#C8C8C8"/>
<path d="M742.738 143.101C742.582 143.101 742.426 143.062 742.271 142.945C741.92 142.673 741.842 142.206 742.115 141.856C742.271 141.662 745.969 136.918 757.299 136.802C757.728 136.802 758.078 137.151 758.078 137.579C758.078 138.007 757.728 138.357 757.299 138.357C746.748 138.473 743.4 142.751 743.361 142.79C743.205 142.984 742.971 143.101 742.738 143.101Z" fill="#C8C8C8"/>
<path d="M755.976 159.003C748.773 159.003 742.933 153.637 742.933 147.027C742.933 140.417 748.773 135.051 755.976 135.051C763.179 135.051 769.019 140.417 769.019 147.027C769.019 153.637 763.179 159.003 755.976 159.003ZM755.976 136.257C749.435 136.257 744.101 141.078 744.101 147.066C744.101 153.054 749.435 157.876 755.976 157.876C762.517 157.876 767.851 153.054 767.851 147.066C767.851 141.078 762.517 136.257 755.976 136.257Z" fill="#644300"/>
<path d="M816.322 537.92C816.322 537.92 815.933 477.651 820.994 446.545C826.056 415.438 824.109 385.887 821.384 373.833C818.658 361.779 808.146 321.73 806.2 317.841C806.2 317.841 791.016 312.009 787.512 292.956C784.007 273.903 789.848 243.186 791.016 237.353C792.184 231.521 796.077 210.135 796.077 200.414C796.077 200.414 822.941 186.805 828.392 173.974C828.392 173.974 850.973 180.195 875.112 209.746C899.251 239.297 915.213 297.622 926.504 343.115C937.795 388.609 943.635 418.16 951.032 439.935C958.43 461.709 973.224 495.538 973.614 518.09C974.003 540.642 951.811 522.367 938.574 531.31C925.336 540.253 915.603 534.421 901.587 539.476C887.571 544.53 879.005 553.085 860.317 548.03C841.629 542.975 828.002 539.476 815.933 539.087" fill="#EC3B00"/>
<path d="M820.995 446.545C820.995 446.545 836.568 391.331 840.072 378.888C843.576 366.446 821.384 326.785 806.2 317.842C806.2 317.842 814.065 343.738 819.282 365.979C824.499 388.22 825.277 401.44 820.995 446.545Z" fill="#BD3A00"/>
<path d="M831.896 174.752C831.896 174.752 815.155 196.137 805.032 199.248C805.032 199.248 799.971 201.192 798.024 200.803C798.024 200.803 806.59 209.747 809.704 233.854C812.819 257.962 819.048 293.346 825.278 310.843C825.278 310.843 808.926 342.338 800.36 347.782C800.36 347.782 799.971 358.747 813.792 368.39C813.987 368.546 814.182 368.662 814.376 368.779C814.376 368.779 832.286 352.448 837.736 347.004C837.736 347.004 853.31 381.999 851.363 393.275C851.363 393.275 911.71 383.555 933.512 366.057C933.512 366.057 909.374 257.184 889.907 228.799C870.44 200.415 857.592 184.861 831.896 174.752Z" fill="#FFBE8F"/>
<path d="M819.048 228.41C819.048 228.41 824.11 242.797 825.278 258.739C826.446 274.681 829.171 287.124 830.728 291.401C832.286 295.678 829.95 301.51 825.278 310.842C825.278 310.842 831.507 301.51 834.232 302.288C836.958 303.066 840.851 303.455 840.851 303.455C840.851 303.455 832.286 287.901 830.339 273.515C828.392 259.128 825.667 239.297 819.048 228.41Z" fill="#FF993B"/>
<path d="M864.99 238.52C864.99 238.52 863.432 265.35 865.768 276.237C868.104 287.124 871.608 306.566 869.272 311.621C869.272 311.621 843.966 336.117 837.736 347.004C837.736 347.004 866.158 316.287 869.661 314.731C873.165 313.176 873.165 291.013 870.829 283.236C868.493 275.459 866.547 255.629 864.99 238.52Z" fill="#FF993B"/>
<path d="M807.368 209.357C809.088 209.357 810.483 207.965 810.483 206.247C810.483 204.529 809.088 203.136 807.368 203.136C805.648 203.136 804.254 204.529 804.254 206.247C804.254 207.965 805.648 209.357 807.368 209.357Z" fill="#692000"/>
<path d="M929.619 444.601C929.619 444.601 942 512.608 936.978 532.477C936.978 532.477 943.09 526.878 954.069 528.9C954.069 528.9 930.398 459.766 929.619 444.601Z" fill="#BD3A00"/>
<path d="M875.501 685.287C875.891 677.511 871.569 671.251 871.569 671.251C848.949 689.098 817.491 680.233 817.491 680.233C804.292 680.971 779.336 689.292 782.996 696.447C785.487 697.263 840.111 714.917 875.501 685.287Z" fill="#9D5400"/>
<path d="M801.528 704.535C808.769 706.168 816.206 707.801 823.681 707.451C830.883 707.14 837.93 705.313 844.977 703.835C845.6 703.719 853.854 701.58 854.087 701.969L856.813 707.024C861.095 707.801 873.943 705.857 873.943 705.857C873.943 705.857 875.111 693.026 875.501 685.249C840.11 714.878 785.487 697.225 782.995 696.409C783.229 696.836 783.541 697.264 784.008 697.692C788.407 701.891 795.843 703.291 801.528 704.535Z" fill="#712600"/>
<path d="M1052.96 623.191C1046.22 617.747 1039.02 613.354 1039.02 613.354C1039.02 613.354 1046.03 638.628 1033.57 657.681C1021.11 676.733 1018.19 670.94 1018.19 670.94C1008.11 689.798 1007.49 698.002 1011.69 699.169C1047.28 687.426 1052.34 633.34 1052.96 623.191Z" fill="#9D5400"/>
<path d="M1013.71 699.286C1019.94 698.508 1033.96 691.509 1037.07 685.288C1040.19 679.067 1049.22 656.048 1049.22 656.048L1057.71 659.236L1069 643.683C1069 643.683 1066.66 636.684 1059.27 628.907C1057.4 626.963 1055.22 625.019 1052.96 623.191C1052.34 633.379 1047.28 687.427 1011.73 699.208C1012.31 699.364 1012.98 699.403 1013.71 699.286Z" fill="#712600"/>
<path d="M1055.1 417.072C1056.07 412.522 1056.39 407.934 1055.33 403.307C1053.19 394.014 1046.15 386.393 1037.04 383.515C1022.9 379.083 1007.87 386.82 1003.2 400.779L1011.65 403.424C1014.84 394.092 1024.93 388.959 1034.39 391.914C1039.53 393.547 1043.77 397.435 1045.8 402.413C1049.03 410.345 1045.06 418.355 1042.68 425.976C1041.44 429.981 1040.15 433.986 1038.9 437.991C1035.36 449.228 1031.82 460.465 1028.31 471.664C1023.8 485.973 1019.32 500.243 1014.8 514.552C1009.82 530.416 1004.8 546.319 999.815 562.184C994.793 578.165 989.77 594.146 984.748 610.127C980.154 624.747 975.56 639.328 970.966 653.948C967.267 665.691 963.568 677.434 959.87 689.176C957.534 696.564 955.198 703.991 952.862 711.379C952.784 711.651 951.149 716.822 951.149 716.822L959.753 719.544C960.726 716.434 961.738 713.284 962.712 710.173C965.359 701.736 968.007 693.298 970.654 684.86C974.548 672.534 978.402 660.208 982.295 647.921C986.967 633.146 991.6 618.331 996.272 603.556C1001.26 587.73 1006.24 571.866 1011.22 556.04C1016.09 540.565 1020.96 525.089 1025.82 509.614C1030.14 495.927 1034.43 482.201 1038.75 468.514C1042.06 458.016 1045.37 447.517 1048.68 437.019C1050.7 430.603 1053.62 423.915 1055.1 417.072Z" fill="#712600"/>
<path d="M1005.54 373.056C1005.42 373.056 1005.3 372.978 1005.23 372.9C1005.11 372.706 1005.15 372.473 1005.34 372.356C1005.54 372.239 1010.17 369.168 1018.04 367.496C1025.28 365.94 1036.72 365.279 1050.12 371.151C1050.31 371.228 1050.39 371.462 1050.31 371.656C1050.23 371.851 1050 371.928 1049.81 371.851C1036.65 366.057 1025.39 366.679 1018.27 368.234C1010.52 369.906 1005.85 372.978 1005.81 372.978C1005.69 373.056 1005.62 373.056 1005.54 373.056Z" fill="#712600"/>
<path d="M994.715 372.395C994.637 372.395 994.521 372.356 994.482 372.317C994.326 372.162 994.287 371.928 994.443 371.773C994.598 371.578 998.219 367.418 1005.31 363.646C1011.85 360.147 1022.71 356.453 1037.15 358.436C1037.35 358.475 1037.5 358.669 1037.5 358.864C1037.46 359.058 1037.27 359.214 1037.07 359.214C1022.82 357.231 1012.16 360.886 1005.73 364.307C998.764 368.001 995.105 372.239 995.066 372.278C994.949 372.356 994.832 372.395 994.715 372.395Z" fill="#712600"/>
<path d="M364.695 493.982C362.242 488.655 359.361 483.678 356.091 479.051C348.771 488.889 337.364 498.065 323.231 504.559C307.697 511.713 291.851 514.28 278.925 512.608C280.326 519.684 282.623 526.761 285.777 533.604C299.404 563.156 326.501 582.209 356.402 586.952C374.857 560.589 379.178 525.361 364.695 493.982ZM310.85 538.776C306.178 540.915 303.18 544.919 302.908 548.73C301.895 547.991 301.078 547.019 300.533 545.892C298.391 541.226 301.662 535.121 307.852 532.282C314.043 529.444 320.817 530.922 322.958 535.588C323.504 536.754 323.698 537.998 323.581 539.243C320.506 536.948 315.522 536.637 310.85 538.776ZM366.291 564.089C361.892 560.862 354.806 560.434 348.148 563.467C341.53 566.539 337.247 572.177 336.858 577.659C335.417 576.609 334.249 575.248 333.509 573.615C330.434 566.966 335.106 558.295 343.905 554.251C352.704 550.208 362.32 552.307 365.396 558.917C366.136 560.551 366.408 562.3 366.291 564.089ZM366.33 519.568C363.216 517.273 358.232 517.001 353.56 519.14C348.888 521.278 345.89 525.283 345.618 529.094C344.605 528.355 343.788 527.383 343.243 526.256C341.101 521.59 344.372 515.485 350.562 512.646C356.753 509.808 363.527 511.285 365.668 515.951C366.213 517.079 366.408 518.284 366.33 519.568Z" fill="#FF993B"/>
<path d="M317.546 489.355C306.334 494.332 291.889 496.704 276.355 495.421C259.302 494.021 244.274 488.5 233.801 480.684C231.543 487.567 230.063 494.799 229.44 502.342C226.793 534.771 240.964 564.672 264.675 583.491C293.758 569.532 314.86 540.992 317.702 506.581C318.208 500.748 318.13 494.993 317.546 489.355ZM236.954 523.961C236.448 522.795 236.215 521.589 236.292 520.306C236.721 515.174 242.561 511.48 249.374 512.024C256.187 512.569 261.327 517.196 260.937 522.328C260.82 523.611 260.392 524.778 259.691 525.828C258.095 522.328 253.929 519.606 248.79 519.179C243.69 518.751 239.096 520.734 236.954 523.961ZM268.451 567.122C258.796 566.344 251.438 559.773 252.022 552.502C252.177 550.713 252.8 549.041 253.774 547.525C256.032 552.502 261.988 556.351 269.269 556.973C276.55 557.556 283.051 554.718 286.088 550.169C286.828 551.802 287.178 553.551 287.023 555.34C286.439 562.65 278.107 567.899 268.451 567.122ZM306.528 529.638C304.932 526.139 300.766 523.417 295.627 522.989C290.488 522.562 285.933 524.583 283.791 527.772C283.285 526.605 283.051 525.4 283.129 524.117C283.558 518.984 289.398 515.29 296.211 515.835C303.024 516.379 308.163 521.006 307.774 526.139C307.696 527.422 307.229 528.588 306.528 529.638Z" fill="#FF6C0D"/>
<path d="M209.234 599.744L112.095 576.026C110.343 575.598 108.591 576.687 108.163 578.397L92.6282 641.932C92.1999 643.682 93.2901 645.432 95.0031 645.859L192.142 669.578C193.894 670.006 195.646 668.917 196.074 667.206L211.609 603.671C212.037 601.922 210.986 600.172 209.234 599.744ZM130.549 645.743C115.832 642.165 106.8 627.312 110.421 612.614C114.003 597.917 128.875 588.896 143.592 592.512C158.309 596.128 167.341 610.942 163.721 625.64C160.139 640.338 145.266 649.359 130.549 645.743Z" fill="#FF993B"/>
<path d="M445.443 183.11L377.154 163.124L379.373 162.969L363.099 148.932L351.38 149.788L361.541 158.536L337.87 151.615C337.208 151.421 336.507 151.382 335.845 151.498L335.417 151.11C334.794 151.343 334.288 151.732 333.937 152.237C333.081 152.82 332.419 153.715 332.069 154.765L314.977 213.012C314.237 215.461 315.678 218.066 318.13 218.805L425.704 250.301C428.157 251.039 430.765 249.601 431.505 247.151L448.597 188.904C449.336 186.454 447.896 183.849 445.443 183.11Z" fill="#FF993B"/>
<path d="M435.009 158.848L418.735 144.811L407.016 145.666L423.29 159.703L435.009 158.848Z" fill="#FF993B"/>
<path d="M407.21 160.908L390.897 146.871L379.178 147.727L395.491 161.764L407.21 160.908Z" fill="#FF993B"/>
<path d="M455.059 154.104L454.436 145.433C454.32 143.644 452.723 142.283 450.932 142.439L434.814 143.644L451.127 157.681L452.061 157.603C453.852 157.448 455.215 155.892 455.059 154.104Z" fill="#FF993B"/>
<path d="M173.61 140.494C173.61 140.455 173.61 140.455 173.61 140.416C175.284 132.134 171.858 124.435 165.901 123.23C159.945 122.025 153.793 127.779 152.119 136.061C152.119 136.1 152.119 136.1 152.119 136.139C151.808 137.694 151.691 139.25 151.73 140.727L146.785 196.641C144.916 210.173 144.761 219.738 146.746 220.127C148.81 220.554 152.586 211.028 156.207 197.069L172.403 144.343C172.909 143.138 173.299 141.855 173.61 140.494Z" fill="#FF993B"/>
<path d="M184.901 106.939C183.382 114.988 176.803 121.326 167.108 119.381C158.582 117.671 153.092 109.35 154.805 100.834C156.518 92.3186 172.715 77.3875 167.965 70.1941C173.883 79.0984 181.981 87.7304 184.667 98.5011C185.329 101.34 185.407 104.217 184.901 106.939Z" fill="#FF993B"/>
<path d="M195.646 173.235C184.901 176.384 175.557 183.344 169.405 192.715C162.981 202.553 163.059 215.268 155.35 224.327C153.287 226.777 150.678 228.838 147.758 230.121C144.605 231.521 141.217 231.443 137.908 232.415C122.374 237.003 113.497 253.295 118.091 268.849C121.284 279.658 130.666 287.824 141.84 289.534C147.992 290.468 154.143 289.146 160.139 287.979C186.847 282.769 214.763 275.964 236.137 258.233C238.707 256.095 241.082 253.762 243.379 251.351C246.688 247.891 249.413 243.963 251.555 239.686C257.55 228.021 257.044 217.523 255.993 211.69C255.682 209.552 255.214 207.374 254.553 205.236C247.155 180.156 220.758 165.808 195.646 173.235ZM145.305 274.098C138.336 276.159 130.978 272.193 128.914 265.194C126.851 258.195 130.822 250.885 137.83 248.824C144.799 246.763 152.158 250.729 154.221 257.728C156.285 264.727 152.313 272.037 145.305 274.098Z" fill="#FF993B"/>
<path d="M197.32 200.531C197.671 201.231 198.099 201.931 198.372 202.669C198.644 203.408 198.722 204.186 198.449 205.002C198.021 207.608 196.659 209.707 194.634 211.418C189.417 215.773 180.384 217.873 175.907 211.651C175.362 211.029 174.895 210.329 174.505 209.552C172.598 206.869 172.715 203.447 174.505 200.92C175.712 199.287 176.919 197.342 178.282 195.593C178.749 195.01 179.216 194.465 179.684 193.921C185.29 186.689 191.597 195.593 195.958 199.014C196.503 199.52 196.97 199.987 197.32 200.531Z" fill="#FF6C0D"/>
<path d="M230.336 193.221C232.672 195.398 232.555 198.82 229.985 200.725C226.209 203.253 221.615 204.031 217.293 204.769C216.514 204.886 215.814 204.847 215.191 204.653C213.283 204.069 211.998 202.125 211.181 199.753C210.908 198.976 210.674 198.12 210.48 197.265C210.285 196.409 210.129 195.515 210.013 194.621C209.896 193.726 209.818 192.871 209.74 192.054C209.701 191.238 209.662 190.46 209.623 189.721C209.701 188.983 209.818 188.205 210.013 187.466C210.908 183.811 212.504 180.506 216.125 179.612C216.943 179.456 217.721 179.379 218.5 179.456C224.807 180.195 224.963 187.466 228.623 191.16C229.207 191.86 229.83 192.521 230.336 193.221Z" fill="#FFC15C"/>
<path d="M240.264 230.042C239.563 230.353 238.785 230.548 238.006 230.626C237.188 230.703 236.371 230.703 235.592 230.587C234.813 230.509 233.996 230.315 233.256 230.081C232.516 229.848 231.777 229.537 231.076 229.148C227.494 226.893 223.601 222.382 225.898 218.611C229.051 213.984 233.723 211.495 236.371 206.168C237.111 204.807 238.59 204.107 240.108 203.446C240.887 203.213 241.666 203.174 242.444 203.213C244.819 203.369 247.078 204.496 248.323 206.402C248.674 206.907 248.946 207.451 249.102 208.073C250.153 215.422 245.364 222.188 242.094 228.798C241.588 229.343 240.965 229.731 240.264 230.042Z" fill="#FC3F00"/>
<path d="M232.36 245.519C232.594 246.102 232.867 246.724 233.061 247.346C233.295 247.968 233.49 248.59 233.606 249.251C234.385 250.923 234.112 252.984 232.711 253.995C228.467 257.806 222.627 259.244 216.982 259.205C213.867 259.283 211.726 256.795 210.947 254.19C210.168 251.584 212.582 249.174 213.906 246.763C214.373 246.024 214.84 245.324 215.269 244.585C216.631 242.369 217.955 240.075 218.967 237.353C219.902 235.681 222.043 235.331 223.678 235.331C224.496 235.409 225.352 235.603 226.131 235.837C229.596 236.731 230.92 240.308 231.66 243.38C231.893 244.08 232.088 244.819 232.36 245.519Z" fill="#FFDA36"/>
<path d="M396.776 300.422C388.639 301.083 380.541 301.161 372.287 301.2C346.786 301.394 320.467 301.588 289.631 320.214C287.295 316.597 284.959 312.981 282.584 309.404C313.653 290.429 340.128 290.235 365.785 290.04C374.234 289.962 382.487 289.924 390.78 289.224C390.741 289.146 390.663 289.068 390.625 288.951C382.371 289.651 374.156 289.69 365.785 289.768C340.128 289.962 313.575 290.196 282.468 309.171C280.209 305.749 277.951 302.366 275.654 298.983L273.513 295.834C280.871 291.673 287.996 288.524 294.926 286.152C296.094 287.785 297.145 289.496 298.119 291.284C299.365 293.54 300.533 295.912 301.545 298.361C301.311 297.039 301 295.756 300.649 294.473C300.299 293.19 299.91 291.907 299.443 290.662C298.975 289.418 298.508 288.174 297.924 286.93C297.69 286.424 297.418 285.88 297.184 285.374C316.885 279.075 334.989 278.92 352.664 278.803C363.06 278.725 373.221 278.647 383.461 277.403C383.422 277.325 383.344 277.248 383.305 277.17C373.105 278.414 363.021 278.492 352.664 278.57C334.95 278.725 316.846 278.842 297.068 285.18C296.756 284.558 296.445 283.974 296.094 283.391C295.393 282.225 294.693 281.058 293.836 279.969L293.525 279.542L293.213 279.153C292.98 278.881 292.785 278.609 292.551 278.336C292.084 277.831 291.617 277.286 291.111 276.82C290.605 276.314 290.06 275.848 289.514 275.381C289.242 275.148 288.93 274.953 288.658 274.72L288.619 274.681C309.137 267.721 327.864 267.566 346.163 267.41C356.013 267.332 365.668 267.255 375.402 266.166C375.324 266.088 375.285 266.01 375.207 265.933C365.551 266.982 355.974 267.06 346.163 267.138C327.786 267.293 308.981 267.449 288.385 274.448L288.269 274.331L287.801 274.02C286.594 273.204 285.232 272.543 283.83 272.037L282.74 271.687C282.39 271.61 282 271.532 281.65 271.415L281.105 271.298L280.56 271.221L279.431 271.104C278.146 270.987 276.861 270.871 275.537 270.754C272.968 270.521 270.359 270.21 267.79 269.899C265.22 269.588 262.65 269.199 260.12 268.771C258.835 268.577 257.55 268.343 256.304 268.11L254.397 267.76L252.567 267.371L244.975 265.816L249.335 272.232C251.671 275.614 253.968 279.036 256.304 282.38L259.808 287.435L260.275 288.096C243.262 298.944 229.44 312.826 218.033 330.518C207.871 346.226 200.902 362.83 194.128 378.888C192.57 382.582 191.052 386.198 189.495 389.776C185.952 390.514 182.331 390.981 178.671 391.175C176.413 391.331 174.155 391.37 171.858 391.37C170.729 391.37 169.6 391.331 168.471 391.253L166.796 391.137L165.979 391.059L165.2 390.981L157.413 390.242L162.514 396.114L163.253 396.969C163.487 397.241 163.76 397.513 163.993 397.824C164.46 398.447 164.966 399.03 165.395 399.652C165.862 400.274 166.329 400.896 166.757 401.596C167.186 402.257 167.653 402.918 168.081 403.579C169.833 406.262 171.468 409.023 173.026 411.861C173.999 413.611 174.972 415.361 175.946 417.149C173.026 421.971 169.833 426.559 166.212 430.836C151.846 447.828 130.043 457.782 106.878 468.164C106.878 468.086 106.878 468.048 106.878 467.97L106.8 467.348L106.722 466.726C106.683 466.531 106.644 466.298 106.644 466.103C106.527 465.287 106.372 464.47 106.177 463.654C105.398 460.426 104.153 457.355 102.673 454.438C101.155 451.522 99.4026 448.761 97.3392 446.195C96.288 444.912 95.1978 443.668 93.9909 442.54C93.368 441.957 92.745 441.413 92.0831 440.868C91.4213 440.324 90.7205 439.857 89.9418 439.391C89.1631 438.963 88.3455 438.535 87.4111 438.302C86.9439 438.185 86.4378 438.107 85.8927 438.069C85.3477 438.069 84.7637 438.146 84.2186 438.341C83.6735 438.535 83.1285 438.885 82.7391 439.274C82.6223 439.391 82.5445 439.468 82.4666 439.585C82.3887 439.702 82.3109 439.818 82.1941 439.896L82.1162 439.974C82.1162 440.013 82.0773 440.013 82.0383 440.091C81.9994 440.168 81.9605 440.246 81.9215 440.324C81.8826 440.402 81.8437 440.479 81.8047 440.557C81.7658 440.635 81.7269 440.713 81.7269 440.79C81.5322 441.413 81.4933 441.996 81.4933 442.501C81.5322 443.007 81.6101 443.473 81.6879 443.94C81.8826 444.834 82.1941 445.651 82.5055 446.428C82.817 447.206 83.1674 447.945 83.5178 448.684L84.0239 449.772L84.1407 450.006L84.2575 450.278L84.4911 450.822C84.6469 451.172 84.8415 451.561 84.9973 451.911C85.153 452.261 85.3477 452.65 85.5034 453C86.8661 455.916 88.3455 458.754 89.9029 461.593C91.9663 465.403 94.1077 469.175 96.249 472.947C70.9812 484.456 46.1417 497.482 31.7753 521.473C25.0787 532.671 20.8739 544.842 19.2777 557.673C18.4601 564.361 18.3043 571.244 18.8883 578.204C18.9662 578.165 19.083 578.126 19.1609 578.126C17.915 562.067 19.9785 541.731 32.0089 521.629C46.3753 497.677 71.137 484.69 96.4048 473.18C98.1957 476.291 99.9866 479.363 101.816 482.473C101.544 483.018 101.233 483.523 100.921 484.029C100.726 484.34 100.493 484.651 100.298 484.923C100.064 485.195 99.8309 485.506 99.5973 485.739L99.5194 485.817L99.4805 485.856L99.4416 485.934L99.3637 486.05C75.3028 497.171 52.0985 510.08 38.355 532.982C31.6585 544.181 27.4537 556.351 25.8574 569.183C25.5459 571.555 25.3513 573.927 25.2345 576.337C25.3513 576.298 25.4291 576.26 25.5459 576.26C26.2467 562.961 29.6729 547.991 38.5886 533.138C52.1764 510.508 75.0692 497.638 98.8965 486.556L98.7797 486.673C98.624 486.828 98.5072 486.984 98.3904 487.178C98.2736 487.334 98.1178 487.489 98.001 487.684L97.6117 488.189C97.4949 488.345 97.3392 488.539 97.2613 488.695C97.0277 489.044 96.7941 489.394 96.5605 489.744C95.704 491.183 94.9642 492.738 94.4581 494.371C93.952 495.966 93.6405 497.638 93.4848 499.348C93.4458 499.543 93.4458 499.776 93.4458 499.971L93.4069 500.593V501.215C93.4069 501.409 93.4069 501.643 93.4069 501.837C93.4458 502.265 93.4458 502.692 93.4848 503.081L93.5626 503.703L93.6405 504.326C93.6794 504.753 93.7962 505.142 93.8741 505.57C93.913 505.764 93.952 505.998 94.0298 506.192L94.0688 506.386C77.0159 515.718 61.6372 527.189 51.4756 544.142C45.986 553.28 42.1705 563.078 40.107 573.382C40.2238 573.382 40.3406 573.343 40.4185 573.343C42.3262 563.934 45.8303 554.096 51.7092 544.298C61.8319 527.422 77.1327 515.991 94.1466 506.659L94.1855 506.814L94.3802 507.436C94.4581 507.631 94.497 507.825 94.5749 508.058C94.7306 508.447 94.8474 508.875 95.0032 509.225C95.6261 510.78 96.4437 512.297 97.417 513.658L97.8064 514.163C97.9232 514.319 98.04 514.513 98.1957 514.668L98.585 515.174C98.6629 515.252 98.7018 515.33 98.7797 515.407L98.9744 515.641L99.4026 516.107C99.5584 516.263 99.7141 516.418 99.8309 516.574L100.259 517.001L100.726 517.429C100.804 517.507 100.882 517.585 100.96 517.624H100.999C83.7514 526.994 68.217 538.543 57.9775 555.613C54.7071 561.095 52.0207 566.811 49.9183 572.721C50.0351 572.721 50.1129 572.721 50.2297 572.721C52.1764 567.122 54.7849 561.406 58.2111 555.729C68.4506 538.659 83.985 527.15 101.232 517.779C101.388 517.896 101.544 518.051 101.739 518.168L102.245 518.557C102.323 518.635 102.4 518.673 102.517 518.751L102.79 518.946C103.14 519.179 103.53 519.373 103.88 519.607C104.269 519.801 104.62 519.996 105.009 520.19L105.282 520.307L105.437 520.384L105.593 520.462L106.177 520.695C106.372 520.773 106.566 520.851 106.761 520.89C106.878 520.929 106.956 520.968 107.073 521.006L107.384 521.084C108.202 521.318 109.019 521.512 109.876 521.629C110.693 521.745 111.55 521.823 112.406 521.823C113.263 521.823 114.081 521.745 114.937 521.629C115.755 521.512 116.611 521.318 117.39 521.084C118.207 520.851 118.986 520.54 119.765 520.19C121.166 519.529 122.49 518.712 123.697 517.701C125.799 520.812 127.902 523.845 129.849 527.033C131.523 529.716 133.041 532.516 134.326 535.393C134.404 535.588 134.482 535.743 134.559 535.938L134.793 536.482L135.26 537.571C135.533 538.31 135.805 539.048 136 539.787C136.234 540.526 136.389 541.303 136.506 542.081C136.623 542.859 136.701 543.637 136.623 544.375C136.584 545.114 136.428 545.892 136.078 546.553C135.922 546.864 135.689 547.175 135.455 547.447C135.221 547.719 134.91 547.914 134.598 548.108C133.937 548.458 133.197 548.614 132.418 548.614C131.678 548.614 130.9 548.419 130.277 547.991C129.693 547.603 129.226 547.058 128.875 546.436C129.849 547.68 131.601 548.225 133.158 547.603C135.066 546.864 136.039 544.686 135.299 542.781C134.559 540.876 132.379 539.904 130.471 540.643C129.732 540.915 129.148 541.42 128.758 542.003C128.564 542.237 128.408 542.548 128.291 542.82C128.135 543.209 128.097 543.598 128.058 544.025C128.019 544.842 128.174 545.658 128.486 546.436C128.797 547.175 129.342 547.875 130.004 548.38C130.705 548.886 131.523 549.119 132.379 549.158C133.197 549.197 134.053 549.041 134.832 548.691C135.221 548.497 135.572 548.264 135.883 547.953C136.195 547.641 136.467 547.292 136.662 546.942C137.09 546.203 137.285 545.347 137.363 544.531C137.441 543.714 137.402 542.859 137.324 542.042C137.246 541.226 137.051 540.409 136.857 539.632C136.662 538.854 136.428 538.076 136.156 537.299L135.728 536.171L135.533 535.588C135.455 535.393 135.377 535.199 135.299 535.043L134.832 533.916C134.676 533.527 134.482 533.177 134.326 532.827C134.014 532.088 133.625 531.388 133.275 530.649C133.08 530.3 132.924 529.95 132.73 529.561L132.146 528.511L131.562 527.461C131.367 527.111 131.172 526.761 130.978 526.411C129.381 523.651 127.629 520.929 125.916 518.246C125.566 517.701 125.215 517.196 124.904 516.652C125.177 516.379 125.449 516.068 125.722 515.757C126.267 515.096 126.734 514.396 127.162 513.658C127.98 512.18 128.564 510.547 128.836 508.914C129.07 507.475 129.07 506.036 128.836 504.598C129.849 504.131 130.9 503.665 131.912 503.237C151.768 494.371 170.69 485.895 184.939 473.141C187.314 475.435 190.896 476.291 194.167 475.046C198.644 473.297 200.863 468.281 199.111 463.809C199.033 463.654 198.994 463.498 198.916 463.343C198.488 461.865 198.021 460.388 197.554 458.91C207.015 445.612 213.672 429.864 220.641 413.339C221.809 410.578 222.977 407.779 224.184 404.979C224.262 405.134 224.301 405.29 224.379 405.446L226.17 409.762L227.961 414.039C230.375 419.755 232.827 425.47 235.319 431.147C237.461 436.008 239.641 440.829 241.86 445.651C239.602 442.579 235.475 441.296 231.737 442.735C227.26 444.484 225.041 449.5 226.793 453.972C228.545 458.443 233.567 460.66 238.045 458.91C242.522 457.16 244.741 452.144 242.989 447.673C242.911 447.439 242.794 447.206 242.678 446.973C241.042 441.374 239.368 435.813 237.577 430.253C235.709 424.343 233.801 418.433 231.815 412.561L230.336 408.167L228.856 403.774C228.272 401.985 227.649 400.235 227.026 398.447C238.901 371.656 254.319 343.66 285.855 323.169C288.191 326.24 290.527 329.273 292.902 332.306C296.795 337.283 300.727 342.183 304.776 347.043C301.039 344.71 295.432 344.321 289.943 346.421C281.961 349.532 277.367 356.764 279.625 362.635C281.922 368.506 290.215 370.762 298.197 367.651C306.178 364.54 310.772 357.308 308.514 351.437C308.203 350.698 307.813 349.998 307.346 349.376C303.686 342.882 299.793 336.506 295.9 330.168C293.914 326.979 291.889 323.791 289.865 320.602C320.622 302.055 346.941 301.822 372.365 301.627C380.658 301.55 388.834 301.511 397.01 300.85C396.893 300.578 396.815 300.5 396.776 300.422ZM270.554 302.522C272.929 305.749 275.265 309.015 277.679 312.242C261.677 322.896 248.595 336.311 237.694 353.225C231.387 363.024 226.248 373.172 221.692 383.321L221.108 381.649L219.551 377.255L217.799 372.356L214.334 376.439C212.971 378.072 211.453 379.588 209.779 380.949C208.105 382.31 206.314 383.515 204.406 384.565C203.978 384.799 203.588 384.993 203.16 385.226C215.852 355.364 231.153 322.508 267.4 299.528C267.634 299.372 267.906 299.217 268.14 299.061L270.554 302.522ZM185.952 427.376L185.017 425.082L184.9 424.809C190.312 415.166 194.867 404.668 199.5 393.742C199.89 393.586 200.318 393.47 200.707 393.314C201.875 392.847 203.043 392.381 204.172 391.836C205.302 391.331 206.431 390.709 207.521 390.087C209.701 388.804 211.803 387.365 213.75 385.693C214.412 385.149 215.035 384.565 215.658 383.943L217.254 387.948C217.604 388.881 217.994 389.776 218.344 390.709C216.787 394.325 215.268 397.941 213.75 401.518C207.248 416.955 201.019 431.692 192.57 444.368C190.468 438.691 188.288 433.014 185.952 427.376ZM184.044 422.826C183.382 421.31 182.72 419.793 182.058 418.277C181.124 416.177 180.151 414.116 179.138 412.056C181.825 407.195 184.277 402.102 186.652 396.891L187.236 396.813L188.132 396.658C188.755 396.541 189.339 396.464 189.962 396.347C190.585 396.23 191.169 396.114 191.792 395.997L193.583 395.569C195.451 395.103 197.32 394.558 199.15 393.897C194.595 404.668 190.117 415.011 184.784 424.498L184.044 422.826ZM293.914 284.791C294.186 285.141 294.459 285.53 294.732 285.919C287.801 288.29 280.716 291.44 273.318 295.6L272.15 293.89C270.982 292.179 269.853 290.507 268.646 288.796L265.96 284.946C271.917 281.486 277.718 278.725 283.402 276.509C284.181 276.742 284.959 277.053 285.699 277.481L286.088 277.675L286.478 277.909C286.711 278.064 286.984 278.22 287.256 278.375C287.762 278.725 288.269 279.036 288.736 279.425C289.242 279.775 289.67 280.203 290.137 280.63C290.371 280.825 290.566 281.058 290.799 281.291L291.15 281.603L291.461 281.952C292.357 282.808 293.135 283.78 293.914 284.791ZM259.263 274.642C261.911 274.953 264.558 275.187 267.245 275.381C269.892 275.576 272.578 275.692 275.226 275.77C276.55 275.809 277.873 275.809 279.236 275.809L280.054 275.848H280.482L280.91 275.887C281.183 275.926 281.455 275.964 281.728 276.003C282 276.081 282.273 276.12 282.545 276.198C282.701 276.237 282.896 276.276 283.052 276.353C277.484 278.57 271.761 281.291 265.882 284.674L265.181 283.702L261.638 278.647C260.665 277.286 259.73 275.926 258.757 274.565C258.913 274.604 259.107 274.642 259.263 274.642ZM194.4 379.005C207.521 347.898 222.393 312.631 260.47 288.329L263.39 292.49C264.558 294.162 265.765 295.834 266.972 297.506L267.906 298.828C267.673 298.983 267.439 299.139 267.167 299.294C249.958 310.182 236.02 324.18 224.535 341.988C215.424 356.103 208.844 370.917 202.732 385.421C202.304 385.654 201.875 385.848 201.447 386.043C200.474 386.509 199.423 386.898 198.41 387.326C196.347 388.104 194.205 388.726 192.064 389.27C191.324 389.465 190.585 389.62 189.884 389.776C191.363 386.198 192.882 382.621 194.4 379.005ZM177.776 409.295C176.296 406.34 174.7 403.385 172.987 400.507C172.559 399.769 172.091 399.069 171.663 398.33C171.507 398.097 171.391 397.863 171.235 397.669C171.391 397.669 171.585 397.669 171.741 397.708C174.155 397.786 176.608 397.747 179.06 397.63C181.513 397.513 183.927 397.28 186.341 396.93C184.005 402.024 181.591 407.001 178.983 411.745C178.593 410.928 178.204 410.112 177.776 409.295ZM96.7552 468.67C95.1978 465.87 93.6794 463.109 92.2 460.31C90.7205 457.51 89.2799 454.672 87.9173 451.833C87.7615 451.483 87.5669 451.133 87.4111 450.744C87.2554 450.395 87.0997 450.045 86.9439 449.656L86.7103 449.111L86.5935 448.839L86.4767 448.567L85.9706 447.478C85.6202 446.778 85.3087 446.079 85.0362 445.379C84.7637 444.679 84.5301 443.979 84.3743 443.318C84.2965 443.007 84.2575 442.657 84.2575 442.385C84.2575 442.112 84.2965 441.879 84.3354 441.724V441.685V441.646C84.3354 441.646 84.3354 441.646 84.3354 441.607C84.3354 441.607 84.3354 441.607 84.3354 441.568L84.3743 441.529C84.4133 441.49 84.4522 441.413 84.4911 441.374C84.5301 441.335 84.569 441.296 84.6079 441.257C84.7637 441.101 84.9194 440.985 85.1141 440.907C85.3087 440.829 85.5423 440.79 85.7759 440.79C86.0485 440.79 86.321 440.829 86.6325 440.907C86.9439 440.985 87.2554 441.101 87.5669 441.218C87.8783 441.374 88.1898 441.529 88.5013 441.685C89.1242 442.035 89.7082 442.462 90.2922 442.929C90.8762 443.396 91.4602 443.901 92.0053 444.407C93.0954 445.456 94.1466 446.623 95.081 447.828C97.0277 450.239 98.7018 452.844 100.142 455.605C101.583 458.366 102.712 461.243 103.452 464.198C103.646 464.937 103.763 465.676 103.88 466.453C103.919 466.648 103.958 466.842 103.958 467.037L104.036 467.62L104.114 468.203C104.153 468.397 104.153 468.592 104.153 468.786C104.153 468.981 104.191 469.136 104.191 469.331C102.323 470.186 100.454 471.003 98.5461 471.858C97.9621 470.769 97.3392 469.72 96.7552 468.67ZM104.191 469.603C104.269 470.847 104.269 472.091 104.191 473.336C104.153 474.074 104.075 474.852 103.958 475.591C103.841 476.33 103.685 477.068 103.491 477.807C103.413 478.157 103.296 478.546 103.179 478.896C103.14 479.09 103.062 479.246 103.023 479.44C102.985 479.518 102.984 479.596 102.946 479.635C102.439 478.74 101.933 477.885 101.427 476.991C100.493 475.358 99.5584 473.724 98.6629 472.091C100.493 471.236 102.362 470.419 104.191 469.603ZM104.659 482.59C104.931 482.045 105.165 481.462 105.359 480.918C105.437 480.723 105.515 480.529 105.593 480.335C105.671 480.14 105.749 479.946 105.788 479.751C105.905 479.363 106.021 478.935 106.138 478.546C106.372 477.729 106.527 476.913 106.644 476.096C106.761 475.28 106.878 474.424 106.917 473.608C107.034 471.936 106.995 470.264 106.878 468.631C106.878 468.592 106.878 468.553 106.878 468.514C130.121 458.132 151.963 448.178 166.368 431.108C169.95 426.87 173.104 422.321 176.024 417.538C176.569 418.549 177.075 419.56 177.62 420.532C179.138 423.41 180.618 426.287 182.058 429.203C179.216 433.869 176.101 438.263 172.636 442.346C158.036 459.649 135.689 469.642 112.056 480.218C109.72 481.268 107.384 482.318 105.048 483.368C104.931 483.056 104.775 482.823 104.659 482.59ZM112.173 480.412C135.844 469.836 158.192 459.843 172.87 442.462C176.296 438.38 179.372 434.025 182.214 429.398C185.095 435.152 187.937 440.946 190.701 446.778L190.779 446.973C189.183 449.228 187.509 451.406 185.757 453.505C171.157 470.808 148.809 480.801 125.177 491.377C123.347 492.194 121.556 493.011 119.726 493.827C119.375 493.749 119.064 493.672 118.714 493.594C117.078 493.322 115.365 493.399 113.769 493.866C113.068 494.06 112.367 494.371 111.706 494.721L111.044 493.555C109.447 490.794 107.812 488.072 106.216 485.312C105.866 484.728 105.554 484.145 105.204 483.562C107.501 482.473 109.837 481.423 112.173 480.412ZM127.201 504.014C127.24 504.248 127.279 504.52 127.318 504.753C124.748 505.881 122.218 507.047 119.687 508.214L113.146 497.093C115.015 496.238 116.884 495.382 118.753 494.527C119.414 494.683 120.076 494.877 120.738 495.188C121.439 495.499 122.101 495.888 122.685 496.355L122.918 496.51L123.152 496.704C123.23 496.782 123.308 496.821 123.386 496.899L123.58 497.093C123.736 497.21 123.853 497.365 123.97 497.482L124.164 497.677L124.359 497.91C124.865 498.493 125.293 499.115 125.683 499.737C126.422 501.059 126.967 502.537 127.201 504.014ZM112.99 496.86L112.056 495.266C112.679 494.955 113.302 494.76 113.964 494.566C114.703 494.371 115.482 494.294 116.261 494.255C116.923 494.255 117.623 494.294 118.285 494.41C116.494 495.266 114.742 496.043 112.99 496.86ZM111.044 497.793C109.915 498.299 108.825 498.843 107.734 499.348C107.929 498.999 108.124 498.687 108.318 498.376C108.747 497.754 109.292 497.171 109.915 496.704C110.031 496.627 110.109 496.549 110.226 496.432C110.46 496.86 110.771 497.327 111.044 497.793ZM96.0933 505.025C96.0154 504.637 95.9376 504.287 95.8986 503.898L95.8208 503.353L95.7818 502.809C95.7429 502.42 95.7429 502.07 95.704 501.681C95.704 501.487 95.704 501.293 95.704 501.137V500.593L95.7429 500.048C95.7429 499.854 95.7429 499.66 95.7818 499.504C95.9376 498.026 96.249 496.549 96.7162 495.11C97.1834 493.71 97.8453 492.311 98.624 491.066C98.8186 490.755 99.0133 490.444 99.2469 490.133C99.3637 489.978 99.4805 489.822 99.5584 489.667L99.9088 489.2C100.026 489.044 100.142 488.928 100.259 488.772C100.376 488.617 100.493 488.461 100.61 488.345L100.96 487.956L101.155 487.761L101.194 487.722L101.232 487.684L101.349 487.567C101.661 487.217 101.972 486.906 102.206 486.556C102.478 486.206 102.712 485.856 102.985 485.506C103.062 485.351 103.179 485.234 103.257 485.078C105.165 488.306 107.111 491.533 109.097 494.721C109.331 495.149 109.603 495.538 109.837 495.966C109.72 496.082 109.564 496.199 109.447 496.316C108.825 496.86 108.279 497.482 107.851 498.182C107.618 498.532 107.423 498.882 107.267 499.271C107.189 499.426 107.111 499.582 107.073 499.776C103.374 501.565 99.7141 503.353 96.1322 505.298C96.0933 505.103 96.0933 505.064 96.0933 505.025ZM102.907 516.418C102.751 516.302 102.634 516.185 102.478 516.068L102.245 515.874C102.167 515.796 102.089 515.757 102.05 515.679L101.622 515.291L101.232 514.902C101.116 514.746 100.96 514.63 100.843 514.474L100.454 514.046L100.259 513.852C100.181 513.774 100.142 513.696 100.064 513.619L99.7141 513.191C99.5973 513.035 99.4805 512.88 99.3637 512.724L99.0522 512.258C98.1957 511.013 97.4949 509.653 96.9498 508.253C96.7941 507.903 96.7162 507.553 96.5605 507.203C96.4826 507.009 96.4437 506.853 96.4048 506.659L96.249 506.114L96.1322 505.57C96.1322 505.531 96.0933 505.453 96.0933 505.414C99.6362 503.548 103.218 501.72 106.839 500.01C106.8 500.087 106.761 500.204 106.722 500.282C106.255 501.837 106.216 503.548 106.644 505.103C106.761 505.492 106.878 505.881 107.034 506.231C107.111 506.425 107.189 506.581 107.306 506.775C107.423 506.97 107.501 507.125 107.618 507.281C108.046 507.981 108.552 508.603 109.136 509.108C108.007 507.981 107.228 506.542 106.878 504.987C106.527 503.47 106.644 501.837 107.15 500.359C107.228 500.126 107.345 499.893 107.423 499.66C108.63 499.076 109.837 498.493 111.083 497.949C112.056 499.543 113.068 501.176 114.042 502.77L117.857 508.992C112.874 511.402 107.851 513.813 102.907 516.418ZM118.869 518.44C116.105 519.646 112.99 520.034 110.031 519.529C109.292 519.412 108.552 519.257 107.851 519.023L107.579 518.946C107.501 518.907 107.384 518.868 107.306 518.868C107.15 518.79 106.956 518.751 106.8 518.673L106.294 518.44L106.177 518.401L106.06 518.324L105.827 518.207C105.476 518.051 105.165 517.857 104.853 517.701C104.542 517.507 104.23 517.313 103.919 517.118L103.685 516.963C103.607 516.924 103.53 516.846 103.452 516.807L103.257 516.69C108.124 514.124 113.146 511.674 118.169 509.342L119.22 511.052C120.31 512.841 121.439 514.552 122.607 516.302C121.4 517.118 120.193 517.896 118.869 518.44ZM127.201 508.525C126.929 510.003 126.383 511.441 125.605 512.724C125.215 513.346 124.787 513.969 124.281 514.552C124.125 514.746 123.97 514.902 123.775 515.096C122.724 513.424 121.673 511.752 120.699 510.08L119.804 508.525C122.295 507.358 124.826 506.231 127.357 505.103C127.474 506.192 127.435 507.358 127.201 508.525ZM131.678 502.809C130.666 503.276 129.654 503.703 128.681 504.17C128.642 504.014 128.642 503.898 128.603 503.742C128.252 502.109 127.629 500.515 126.734 499.115C126.267 498.415 125.761 497.754 125.215 497.132L125.021 496.899L124.787 496.666C124.631 496.51 124.476 496.354 124.32 496.238L124.086 496.043C124.009 495.966 123.931 495.927 123.853 495.849L123.619 495.655L123.347 495.46C122.646 494.994 121.945 494.566 121.166 494.255C120.855 494.138 120.505 494.021 120.193 493.905C121.906 493.127 123.619 492.35 125.332 491.611C149.004 481.035 171.352 471.042 186.029 453.661C187.781 451.6 189.417 449.461 190.974 447.245L196.736 459.26C196.58 459.454 196.425 459.688 196.269 459.882C193.933 458.055 190.74 457.51 187.781 458.638C183.304 460.388 181.085 465.403 182.837 469.875C183.265 470.964 183.888 471.936 184.667 472.752C170.378 485.506 151.496 493.944 131.678 502.809ZM197.671 461.321C197.32 460.854 196.892 460.465 196.425 460.076C196.541 459.882 196.697 459.727 196.814 459.532L197.671 461.321ZM220.252 413.028C213.322 429.475 206.703 445.184 197.32 458.404C195.996 454.166 194.556 450.006 193.076 445.806C192.96 445.456 192.804 445.106 192.687 444.718C201.252 431.964 207.482 417.149 214.023 401.674C215.502 398.213 216.982 394.675 218.5 391.098C219.24 392.925 219.979 394.792 220.719 396.619C221.77 399.224 222.822 401.791 223.912 404.396C222.666 407.273 221.459 410.15 220.252 413.028ZM244.157 364.657C237.188 375.467 231.698 386.665 226.754 397.863C226.403 396.852 226.053 395.803 225.703 394.792C224.69 391.875 223.678 388.92 222.627 386.004L221.809 383.671C233.295 358.241 248.44 332.034 277.834 312.437C277.834 312.437 277.834 312.437 277.834 312.476C280.404 315.936 282.974 319.358 285.543 322.78C268.958 333.55 255.37 347.237 244.157 364.657Z" fill="#FF993B"/>
<path d="M686.947 474.541C687.181 474.93 687.375 475.319 687.609 475.747C689.906 474.658 692.242 473.686 694.578 472.83C695.551 472.48 696.68 472.014 697.031 471.042C697.225 470.497 697.186 469.875 697.108 469.292C696.953 468.242 696.836 467.153 696.641 466.104C693.799 469.214 690.568 472.014 686.947 474.541Z" fill="#FFE2C0"/>
</svg>
