<svg width="531" height="306" viewBox="0 0 531 306" fill="none" xmlns="http://www.w3.org/2000/svg">
<path d="M418.386 107.839C418.386 107.839 262.164 179.552 235.737 176.078C209.31 172.605 138.449 207.53 117.501 226.937C96.5531 246.345 47.1713 305.488 106.605 305.981C166.039 306.475 187.312 297.126 287.104 282.64C386.896 268.154 517.647 241.852 525.345 182.654C533.042 123.457 479.176 89.7895 418.386 107.839Z" fill="#FFA26C"/>
<path d="M454.463 61.4983C458.024 61.9317 533.788 88.6859 516.719 141.804C499.65 194.922 505.237 205.588 438.145 233.652C371.054 261.716 254.791 257.372 180.357 278.499C105.923 299.625 60.7173 279.639 145.574 222.287C230.43 164.935 276.844 166.276 330.786 147.388C384.729 128.501 425.628 57.9971 454.463 61.4983Z" fill="#FFBA87"/>
<path d="M224.597 201.727C149.544 234.49 130.593 268.177 180.96 260.787C231.327 253.396 277.688 247.192 352.447 230.515C427.206 213.837 419.752 238.963 437.873 194.77C455.994 150.578 366.201 159.704 322.5 179.193C278.798 198.681 224.597 201.727 224.597 201.727Z" fill="#FFD4AD"/>
<path d="M405.412 17.2043C480.626 35.2392 530.998 120.018 530.998 120.018L436.651 235.096C436.651 235.096 342.166 163.933 303.169 111.055C303.169 111.055 353.11 30.8592 405.412 17.2043Z" fill="#FF6C18"/>
<path d="M77.7699 256.869C76.8276 257.029 71.8937 263.699 71.4752 268.386C71.0567 273.072 72.9389 284.169 64.3267 283.446C55.7145 282.723 38.5236 280.062 38.5236 280.062L38.0333 261.443C38.0333 261.443 62.9228 249.436 68.0671 246.861C73.2091 244.284 77.7699 256.869 77.7699 256.869Z" fill="#FFC8A0"/>
<path d="M50.6516 222.859C52.6797 220.874 58.123 221.315 62.6072 221.339C64.102 221.346 65.4891 221.307 66.6108 221.116C71.0902 220.354 93.7124 212.133 93.7124 212.133C105.381 196.546 136.324 171.607 150.609 162.861C164.894 154.115 175.486 159.357 175.486 159.357C187.987 158.689 238.911 161.443 238.911 161.443C245.696 160.289 256.114 160.193 265.228 160.413C265.776 160.428 266.317 160.44 266.855 160.456C276.33 160.727 284.01 161.304 284.01 161.304L316.423 223.226L320.534 223.59L331.519 241.153C331.519 241.153 308.964 258.35 285.332 257.753C261.701 257.157 220.977 260.198 197.522 253.5C174.068 246.802 154.115 240.722 154.115 240.722C154.115 240.722 120.336 238.938 110.748 241.055L104.185 242.415L92.4233 253.16L93.2962 255.44L80.6231 263.668L67.0986 251.151L62.7388 252.621L63.0234 255.73C59.7229 256.29 51.1395 252.892 51.1395 252.892L50.6516 222.859Z" fill="#F95400"/>
<path d="M409.547 71.9365C409.547 71.9365 400.627 73.6966 399.022 62.7957C397.417 51.8947 397.154 18.9044 421.099 5.60154C445.043 -7.70138 455.11 5.88891 459.3 13.4348C463.49 20.9807 467.195 35.6534 463.803 45.7042C460.414 55.7551 444.883 68.5982 441.401 73.8044C437.919 79.0106 437.366 91.4945 437.687 93.384C438.007 95.2735 442.951 104.39 442.951 104.39C442.951 104.39 409.124 112.331 397.188 104.888C385.251 97.4455 390.69 76.6015 390.69 76.6015C390.69 76.6015 400.17 78.1461 404.137 77.2289C408.105 76.3117 409.547 71.9365 409.547 71.9365Z" fill="#FFC8A0"/>
<path d="M284.01 161.305C286.083 157.794 291.782 157.068 291.782 157.068C300.323 147.357 307.89 140.482 312.522 137.752C317.153 135.022 337.024 89.1337 337.024 89.1337C337.024 89.1337 352.017 80.2682 356.451 77.8136C360.888 75.359 360.295 74.7316 369.65 74.1113C379.006 73.4911 397.807 75.6368 397.807 75.6368L397.288 77.4712C395.889 86.9856 400.296 91.7296 400.296 91.7296C407.667 98.0063 439.755 97.7835 439.755 97.7835L455.628 120.455C455.628 120.455 467.744 134.668 458.508 148.871C457.338 151.984 435.998 180.635 430.985 186.83C430.727 187.149 430.38 187.554 429.957 188.03C429.947 188.03 429.94 188.03 429.931 188.028C429.196 189.146 416.664 207.885 400.679 207.967C390.749 215.151 361.713 235.808 350.274 240.152C336.371 245.433 330.517 246.671 330.517 246.671C330.517 246.671 325.54 240.042 322.806 235.408C322.79 235.415 322.77 235.422 322.754 235.43C311.695 218.144 284.01 161.305 284.01 161.305Z" fill="#FC7F00"/>
<path d="M53.3089 229.938C52.2853 229.627 38.2275 222.545 31.6817 216.855C25.1383 211.168 25.5401 239.275 25.5401 239.275C25.5401 239.275 34.279 255.035 39.0741 254.705C43.8693 254.374 53.1726 249.149 53.902 243.437C54.6314 237.73 53.3089 229.938 53.3089 229.938Z" fill="#FFC8A0"/>
<path d="M408.713 18.397C408.713 18.397 400.87 25.0758 399.024 25.6314C399.024 25.6314 401.306 26.2157 399.701 28.189C398.096 30.1622 397.271 31.0315 397.271 31.0315C397.271 31.0315 399.825 30.3538 399.122 31.9319C398.419 33.51 397.876 36.0293 396.975 36.4268C396.975 36.4268 399.058 35.8305 400.555 37.5188C402.054 39.2047 408.713 18.397 408.713 18.397Z" fill="#E6E6E6"/>
<path d="M422.274 51.7904C425.986 51.1591 428.375 47.0005 427.612 42.502C426.849 38.0035 423.221 34.8685 419.51 35.4999C415.799 36.1312 413.409 40.2898 414.172 44.7883C414.936 49.2869 418.563 52.4218 422.274 51.7904Z" stroke="#591B00" stroke-width="2" stroke-miterlimit="10"/>
<path d="M411.005 37.3912C412.591 33.1134 411.495 28.7608 408.558 27.6693C405.62 26.5779 401.954 29.1609 400.369 33.4388C398.783 37.7166 399.879 42.0692 402.816 43.1607C405.754 44.2521 409.42 41.6691 411.005 37.3912Z" stroke="#591B00" stroke-width="2" stroke-miterlimit="10"/>
<path d="M405.35 50.0601C405.35 50.0601 405.589 51.4778 406.849 51.7484C408.107 52.019 409.994 51.6981 410.937 51.5377C411.879 51.3772 413.18 51.8849 413.18 51.8849L411.609 52.6369C411.609 52.6369 417.98 53.0105 420.24 59.1843C420.24 59.1843 416.095 57.2253 416.026 57.2277C416.026 57.2277 416.877 59.5746 416.621 61.7587C416.612 61.8353 416.602 61.9143 416.59 61.991C416.59 61.991 415.914 59.4333 413.512 58.1425C413.512 58.1425 414.065 58.5353 413.596 60.0703C413.596 60.0703 413.395 58.8897 410.717 57.4025C408.038 55.9154 407.526 55.7597 407.325 54.5791C407.325 54.5791 403.628 54.2366 402.956 53.135C402.284 52.0358 401.186 52.7064 401.186 52.7064C401.186 52.7064 401.774 51.8778 402.48 51.758C402.48 51.758 401.571 50.6971 400.354 50.6612C400.354 50.6612 400.43 49.6769 400.901 49.5955C400.901 49.5955 400.586 49.1645 399.722 49.7967C399.722 49.7967 400.978 48.6113 401.961 48.6879C402.944 48.7645 404.403 48.7645 405.35 50.0601Z" fill="#E6E6E6"/>
<path d="M421.667 44.2627C422.126 43.0227 421.997 41.831 421.378 41.6009C420.758 41.3709 419.884 42.1896 419.425 43.4295C418.965 44.6695 419.094 45.8612 419.714 46.0913C420.333 46.3213 421.207 45.5027 421.667 44.2627Z" fill="#591B00"/>
<path d="M406.661 35.8822C407.12 34.6423 406.991 33.4508 406.372 33.2207C405.752 32.9906 404.878 33.8093 404.418 35.0491C403.959 36.289 404.088 37.4806 404.707 37.7106C405.327 37.9407 406.201 37.1221 406.661 35.8822Z" fill="#591B00"/>
<path d="M446.466 33.5934C443.912 34.2712 438.454 36.4145 435.438 40.0857C432.423 43.7568 431.875 44.8201 430.897 46.2019C430.897 46.2019 431.684 46.5539 433.255 45.802C433.255 45.802 429.531 49.5929 429.696 51.9949C429.696 51.9949 431.569 47.3035 436.41 48.6661C441.25 50.0288 438.395 54.6435 433.683 56.9042C433.683 56.9042 431.76 58.4464 431.882 59.1528C431.882 59.1528 434.903 56.9377 436.082 56.7389C437.261 56.5378 437.306 58.2309 435.814 59.457C435.814 59.457 439.04 59.8809 440.836 56.1737C440.836 56.1737 442.927 58.4895 441.406 62.393C441.406 62.393 444.747 62.0673 446.232 59.3851C446.232 59.3851 447.607 58.9086 446.471 60.8028C446.471 60.8028 449.305 61.7775 451.498 58.9756C451.498 58.9756 453.665 60.3071 452.61 62.6732C452.61 62.6732 456.779 62.9366 457.281 60.1778C457.281 60.1778 458.62 60.9226 457.602 62.0673C457.602 62.0673 462.184 56.1857 461.502 52.1721C461.502 52.1721 462.009 50.8717 462.925 54.8446C462.925 54.8446 464.358 47.5574 459.78 42.0206C459.78 42.0206 461.191 40.3227 462.49 40.8304C462.49 40.8304 460.266 33.4354 456.487 32.6212C452.711 31.8021 446.466 33.5934 446.466 33.5934Z" fill="#E6E6E6"/>
<path d="M409.583 57.8428C409.583 57.8428 406.868 57.5746 403.479 54.7517" stroke="#FFA177" stroke-width="4" stroke-miterlimit="10" stroke-linecap="round"/>
<path d="M409.548 71.9363C409.548 71.9363 415.641 72.1136 421.144 71.6633C421.144 71.6633 410.868 78.5126 405.14 76.8147C405.142 76.8147 407.4 76.4315 409.548 71.9363Z" fill="#FFAE7A"/>
<path d="M423.93 132.404C423.93 132.404 402.671 161.524 398.632 177.758C398.632 177.758 397.527 164.101 371.119 142.845C371.119 142.845 397.41 176.266 399.998 187.244L423.93 132.404Z" fill="#FF6C18"/>
<path d="M319.111 70.8586C319.111 70.8586 326.057 65.9757 320.295 59.1842C314.534 52.3904 309.342 51.818 306.575 46.9447C303.808 42.0714 302.691 36.918 302.691 36.918L298.465 43.4676L317.944 73.919L358.647 89.3435C358.647 89.3435 349.509 84.0966 344.379 78.1673C339.249 72.2355 330.61 64.3449 319.111 70.8586Z" fill="white"/>
<path d="M442.585 102.077C442.585 102.077 409.925 104.179 399.01 97.0477C388.097 89.9161 392.667 75.0925 392.667 75.0925L397.802 75.6361C397.802 75.6361 394.769 86.3551 400.289 91.7313C400.289 91.7313 406.558 97.2225 439.664 97.9074L442.585 102.077Z" fill="#FF6C18"/>
<path d="M360.692 89.9645L340.729 156.757L300.658 129.325L319.193 71.2734L360.692 89.9645Z" fill="#FF650D"/>
<path d="M297.499 36.3433L319.193 71.2731L300.658 129.324L281.233 103.48L297.499 36.3433Z" fill="#FF4D08"/>
<path d="M283.842 92.2393C283.842 92.2393 292.586 87.4594 295.406 84.0661C298.226 80.6727 300.77 77.0806 301.748 75.6989C302.727 74.3171 302.509 67.3101 301.284 65.8182C300.06 64.3263 299.273 63.9743 297.386 64.2952C295.499 64.616 288.975 71.3955 288.975 71.3955L290.57 64.7358C290.57 64.7358 290.819 64.197 289.365 64.2018C287.911 64.2065 286.394 69.566 286.043 70.3538C285.691 71.1417 283.421 74.9278 281.972 76.3909C280.523 77.8517 278.6 79.3939 278.614 83.7643C278.629 88.1347 282.635 97.9028 282.635 97.9028L283.842 92.2393Z" fill="#FFC8A0"/>
<path d="M274.761 196.885C274.761 196.885 196.063 189.139 175.981 192.312C175.981 192.312 152.345 190.259 140.915 194.39C129.486 198.521 93.7098 212.135 93.7098 212.135C93.7098 212.135 146.382 195.159 152.672 195.061C158.965 194.962 260.34 199.096 274.761 196.885Z" fill="#F12F00"/>
<path d="M219.449 161.112C219.449 161.112 221.202 168.586 233.516 171.108C245.83 173.63 266.508 172.54 266.508 172.54C266.508 172.54 266.058 167.03 266.903 160.571L219.449 161.112Z" fill="#F12F00"/>
<path d="M286.334 213.62C286.334 213.62 296.262 232.093 293.076 244.781C293.076 244.781 260.008 244.333 253.122 242.347C253.122 242.347 227.678 228.214 254.928 215.807C254.925 215.804 274.972 213.852 286.334 213.62Z" fill="#F12F00"/>
<path d="M153.466 240.712C153.466 240.712 152.467 232.338 153.82 224.052C153.82 224.052 150.221 231.796 149.238 240.633C149.238 240.633 148.399 240.499 153.466 240.712Z" fill="#F12F00"/>
<path d="M104.185 242.417C104.185 242.417 77.3875 247.461 67.0964 251.156C67.0964 251.156 83.9405 243.188 104.185 242.417Z" fill="#F12F00"/>
<path d="M63.0687 220.263C63.0687 220.263 60.8278 232.79 63.0209 255.734C63.0209 255.734 58.1636 255.789 51.204 252.623L50.6492 222.861C50.6516 222.859 53.2775 219.741 63.0687 220.263Z" fill="#F12F00"/>
<path d="M93.2152 254.97C93.2152 254.97 87.1453 262.454 81.0347 263.426L67.0964 251.155L84.6963 246.217C84.6963 246.217 92.4188 251.706 93.2152 254.97Z" fill="#F12F00"/>
<path d="M355.561 146.948C354.653 145.887 349.716 138.226 344.665 132.768C339.614 127.311 334.322 118.982 333.568 117.408C332.817 115.835 330.622 105.765 331.521 103.912C332.42 102.058 339.021 100.935 341.544 102.935C344.067 104.934 349.683 115.153 351.302 117.55C352.921 119.947 352.029 119.089 352.029 119.089L355.514 107.499C355.514 107.499 356.499 106.706 356.669 110.564C356.839 114.422 356.58 120.052 357.02 122.65C357.46 125.246 357.941 128.082 357.987 129.772C358.032 131.466 364.188 139.162 364.188 139.162L355.561 146.948Z" fill="#FFC8A0"/>
<path d="M371.115 141.387C371.115 141.387 374.606 139.093 365.669 135.026C365.669 135.026 358.814 143.236 350.183 149.563C350.183 149.563 351.647 152.472 356.693 156.472L371.115 141.387Z" fill="#FF6C18"/>
<path d="M41.2051 257.26C41.2051 257.26 45.7659 271.308 43.6948 281.251C43.6948 281.251 65.7238 290.253 69.6603 292.013C73.5969 293.773 69.5718 301.501 66.1112 301.118C62.6506 300.734 2.64537 273.049 2.64537 273.049C2.64537 273.049 2.22206 263.405 6.85219 260.673C11.4823 257.943 41.2051 257.26 41.2051 257.26Z" fill="#D02900"/>
<path d="M33.449 215.828C33.449 215.828 35.4077 225.941 24.9181 241.327L36.118 264.442C36.118 264.442 33.1811 268.585 29.8807 269.145C29.8807 269.145 2.36291 219.901 4.25447e-07 205.971C-0.00239118 205.971 10.0782 185.309 33.449 215.828Z" fill="#F12F00"/>
<path d="M383.802 200.442C383.802 200.442 362.45 174.681 356.693 156.471L383.802 200.442Z" fill="#FF6C18"/>
<path d="M530.998 120.019C530.998 120.019 465.545 162.068 436.652 235.096C436.652 235.096 526.145 212.296 530.998 120.019Z" fill="#FF4D08"/>
</svg>
