<svg width="108" height="31" viewBox="0 0 108 31" fill="none" xmlns="http://www.w3.org/2000/svg">
<path d="M21.4088 30.9998C21.4088 30.9998 20.7587 28.2887 15.439 27.1993C10.1194 26.1098 9.69385 25.5397 9.69385 23.234L11.9399 20.2822C11.9399 20.2822 12.7319 21.0423 17.3305 21.9165C21.929 22.7906 21.4088 30.9998 21.4088 30.9998Z" fill="url(#paint0_linear)"/>
<path d="M8.67732 17.0515C8.67732 17.0515 9.36296 11.1859 4.75262 9.69103C0.142287 8.19614 0.0713584 5.92847 0.0713584 5.92847C0.0713584 5.92847 -0.767959 11.9967 3.31041 13.5169C7.38879 15.0372 8.67732 17.0515 8.67732 17.0515Z" fill="url(#paint1_linear)"/>
<path d="M28.4187 0C28.4187 0 30.0501 11.389 21.8579 15.1516C13.6657 18.9141 12.188 19.8769 9.7055 23.8169C9.7055 23.8169 8.26329 13.8594 12.8618 10.3249C17.4603 6.79034 26.019 3.86391 28.4187 0Z" fill="url(#paint2_linear)"/>
<path d="M32.1471 22.7531V27.5719H30.0039V15.2322H33.4919C34.2903 15.2322 34.9627 15.3223 35.509 15.5024C36.0553 15.6825 36.5176 15.9077 36.8958 16.223C37.274 16.5382 37.5261 16.8985 37.6942 17.3488C37.8623 17.7992 37.9464 18.2496 37.9464 18.79C37.9464 19.1953 37.9043 19.6006 37.7783 19.9609C37.6522 20.3212 37.4841 20.6815 37.274 20.9517C37.0639 21.2669 36.8117 21.5372 36.4755 21.7623C36.1394 21.9875 35.8032 22.1676 35.3829 22.3028C35.6351 22.4829 35.8872 22.7081 36.0973 23.0233L38.9549 27.5719H37.0219C36.8538 27.5719 36.6857 27.5269 36.5596 27.4368C36.4335 27.3467 36.3075 27.2567 36.2234 27.0765L33.786 23.1134C33.702 22.9783 33.5759 22.8432 33.4919 22.7981C33.3658 22.7531 33.2397 22.7081 33.0296 22.7081H32.1471V22.7531ZM32.1471 21.1318H33.4919C33.9121 21.1318 34.2483 21.0868 34.5425 20.9517C34.8366 20.8616 35.0888 20.6815 35.2989 20.5013C35.509 20.3212 35.6351 20.096 35.7191 19.8258C35.8032 19.5556 35.8452 19.2854 35.8452 18.9701C35.8452 18.3396 35.6351 17.8442 35.2569 17.529C34.8786 17.2137 34.2903 17.0336 33.4919 17.0336H32.1471V21.1318Z" fill="#FDC735"/>
<path d="M50.6798 15.2767V17.0782H45.5949V20.5008H49.6292V22.2572H45.5949V25.725H50.6798V27.5714H43.4097V15.2317H50.6798V15.2767Z" fill="#FDC735"/>
<path d="M55.5967 27.5714V15.2317H59.5469C60.3034 15.2317 60.9337 15.3218 61.48 15.4569C62.0263 15.592 62.4466 15.8172 62.7828 16.1324C63.119 16.4026 63.3711 16.7629 63.5392 17.1682C63.7073 17.5735 63.7913 18.0239 63.7913 18.5193C63.7913 18.7895 63.7493 19.1048 63.6653 19.3299C63.5812 19.6001 63.4551 19.8253 63.2871 20.0505C63.119 20.2757 62.9088 20.5009 62.6567 20.681C62.4046 20.8611 62.1104 21.0413 61.7322 21.1764C63.3291 21.5367 64.0855 22.4824 64.0855 23.9236C64.0855 24.464 64.0014 24.9143 63.7913 25.3647C63.6232 25.815 63.3291 26.1753 62.9929 26.4906C62.6567 26.8058 62.1944 27.076 61.6901 27.2562C61.1859 27.4363 60.5975 27.5264 59.9251 27.5264H55.5967V27.5714ZM57.7399 20.5909H59.4629C60.1773 20.5909 60.7236 20.4558 61.1018 20.1856C61.48 19.9154 61.6481 19.465 61.6481 18.8345C61.6481 18.204 61.48 17.7537 61.1438 17.4835C60.8076 17.2133 60.2613 17.0782 59.5469 17.0782H57.6979V20.5909H57.7399ZM57.7399 22.1672V25.77H59.9251C60.3034 25.77 60.6395 25.725 60.9337 25.6349C61.1859 25.5448 61.396 25.4097 61.5641 25.2296C61.7322 25.0494 61.8582 24.8693 61.9003 24.6441C61.9843 24.4189 62.0263 24.1938 62.0263 23.9236C62.0263 23.6533 61.9843 23.4282 61.9003 23.203C61.8162 22.9778 61.6901 22.7977 61.522 22.6626C61.3539 22.5275 61.1438 22.3923 60.8497 22.3023C60.5975 22.2122 60.2613 22.1672 59.8831 22.1672H57.7399Z" fill="#FDC735"/>
<path d="M80.0547 21.3979C80.0547 22.2986 79.9286 23.1542 79.6344 23.9198C79.3403 24.6854 78.9621 25.361 78.4578 25.9014C77.9535 26.4418 77.3231 26.8922 76.6087 27.2074C75.8943 27.5227 75.0959 27.6578 74.2134 27.6578C73.3309 27.6578 72.5324 27.4776 71.818 27.2074C71.1036 26.8922 70.4733 26.4418 69.969 25.9014C69.4647 25.361 69.0445 24.6854 68.7923 23.9198C68.4981 23.1542 68.3721 22.2986 68.3721 21.3979C68.3721 20.4971 68.4981 19.6415 68.7923 18.8759C69.0865 18.1103 69.4647 17.4347 69.969 16.8943C70.4733 16.3539 71.1036 15.9035 71.818 15.5883C72.5324 15.273 73.3309 15.1379 74.2134 15.1379C75.0959 15.1379 75.8943 15.3181 76.6087 15.6333C77.3231 15.9486 77.9535 16.3989 78.4578 16.9394C78.9621 17.4798 79.3823 18.1553 79.6344 18.9209C79.8866 19.6865 80.0547 20.4971 80.0547 21.3979ZM77.8694 21.3979C77.8694 20.7223 77.7854 20.1369 77.6173 19.5964C77.4492 19.056 77.1971 18.6057 76.9029 18.2454C76.6087 17.8851 76.2305 17.5699 75.7682 17.3897C75.306 17.2096 74.8017 17.0745 74.2554 17.0745C73.7091 17.0745 73.2048 17.1645 72.7425 17.3897C72.2803 17.5699 71.9021 17.8851 71.6079 18.2454C71.2717 18.6057 71.0616 19.056 70.8935 19.5964C70.7254 20.1369 70.6414 20.7223 70.6414 21.3979C70.6414 22.0734 70.7254 22.6588 70.8935 23.1993C71.0616 23.7397 71.3137 24.1901 71.6079 24.5503C71.9441 24.9106 72.3223 25.2259 72.7425 25.406C73.2048 25.5862 73.7091 25.7213 74.2554 25.7213C74.8017 25.7213 75.306 25.6312 75.7682 25.406C76.2305 25.2259 76.6087 24.9106 76.9029 24.5503C77.1971 24.1901 77.4492 23.7397 77.6173 23.1993C77.7854 22.7039 77.8694 22.0734 77.8694 21.3979Z" fill="#FDC735"/>
<path d="M86.9884 22.7526V27.5714H84.8452V15.2317H88.3332C89.1316 15.2317 89.804 15.3218 90.3503 15.5019C90.8966 15.682 91.3589 15.9072 91.7371 16.2225C92.1153 16.5377 92.3675 16.898 92.5356 17.3484C92.7037 17.7987 92.7877 18.2491 92.7877 18.7895C92.7877 19.1948 92.7457 19.6001 92.6196 19.9604C92.4935 20.3207 92.3254 20.681 92.1153 20.9512C91.9052 21.2665 91.6531 21.5367 91.3169 21.7618C90.9807 21.987 90.6445 22.1672 90.2243 22.3023C90.4764 22.4824 90.7285 22.7076 90.9387 23.0228L93.7963 27.5714H91.8632C91.6951 27.5714 91.527 27.5264 91.4009 27.4363C91.2748 27.3463 91.1488 27.2562 91.0647 27.076L88.6694 23.1129C88.5853 22.9778 88.4593 22.8427 88.3752 22.7977C88.2491 22.7526 88.1231 22.7076 87.913 22.7076H86.9884V22.7526ZM86.9884 21.1314H88.3332C88.7534 21.1314 89.0896 21.0863 89.3838 20.9512C89.678 20.8611 89.9301 20.681 90.1402 20.5008C90.3503 20.3207 90.4764 20.0955 90.5604 19.8253C90.6445 19.5551 90.6865 19.2849 90.6865 18.9696C90.6865 18.3391 90.4764 17.8438 90.0982 17.5285C89.72 17.2133 89.1316 17.0331 88.3332 17.0331H86.9464V21.1314H86.9884Z" fill="#FDC735"/>
<path d="M99.6378 15.2767C99.7218 15.2767 99.7638 15.3218 99.8059 15.3218C99.8479 15.3668 99.8899 15.3668 99.9319 15.4118C99.974 15.4569 100.016 15.5019 100.1 15.592L106.151 23.8335C106.151 23.6533 106.109 23.4282 106.109 23.248C106.109 23.0679 106.109 22.8877 106.109 22.7076V15.2317H108.001V27.5714H106.908C106.74 27.5714 106.614 27.5264 106.488 27.4814C106.362 27.4363 106.278 27.3012 106.151 27.1661L100.1 18.9696C100.1 19.1498 100.142 19.3299 100.142 19.5101C100.142 19.6902 100.142 19.8704 100.142 20.0055V27.5714H98.251V15.2317H99.3856C99.5117 15.2767 99.5957 15.2767 99.6378 15.2767Z" fill="#FDC735"/>
<defs>
<linearGradient id="paint0_linear" x1="12.0547" y1="25.64" x2="23.7934" y2="25.64" gradientUnits="userSpaceOnUse">
<stop stop-color="#FEC834"/>
<stop offset="1" stop-color="#F07F23"/>
</linearGradient>
<linearGradient id="paint1_linear" x1="-5.42359" y1="11.4914" x2="25.0554" y2="11.4914" gradientUnits="userSpaceOnUse">
<stop stop-color="#FEC834"/>
<stop offset="1" stop-color="#F07F23"/>
</linearGradient>
<linearGradient id="paint2_linear" x1="43.7767" y1="11.915" x2="5.91332" y2="11.915" gradientUnits="userSpaceOnUse">
<stop stop-color="#FEC834"/>
<stop offset="1" stop-color="#F07F23"/>
</linearGradient>
</defs>
</svg>
