<svg width="49" height="49" viewBox="0 0 49 49" fill="none" xmlns="http://www.w3.org/2000/svg">
<path d="M24.5 0C14.9866 0 7.24721 7.86105 7.24721 17.5231V31.4773C7.24721 41.1394 14.9866 49 24.5 49C34.0128 49 41.7528 41.1633 41.7528 31.5309V17.5231C41.7528 7.86105 34.0128 0 24.5 0ZM38.5077 31.5309C38.5077 39.3742 32.2242 45.755 24.5 45.755C16.7763 45.755 10.4923 39.3499 10.4923 31.4769V17.5231C10.4923 9.65013 16.7763 3.24501 24.5 3.24501C32.2243 3.24501 38.5077 9.65013 38.5077 17.5231V31.5309Z" fill="#F07F25"/>
<path d="M24.5 13.4128C23.6038 13.4128 22.8774 14.1392 22.8774 15.0354V20.7142C22.8774 21.6104 23.6038 22.3368 24.5 22.3368C25.3962 22.3368 26.1226 21.6104 26.1226 20.7142V15.0354C26.1226 14.1392 25.3962 13.4128 24.5 13.4128Z" fill="#F07F25"/>
</svg>
