<svg width="70" height="70" viewBox="0 0 70 70" fill="none" xmlns="http://www.w3.org/2000/svg">
<circle cx="35" cy="35" r="35" fill="#FF993B"/>
<path d="M59.0001 15L57.5561 15.7756H57.4598L10.0001 36.4263L22.2261 37.3958L25.4029 49.6117V49.9995L34.2595 41.08L46.4854 47.2849L59.0001 15ZM41.7683 26.3433L51.4913 20.7201L30.2162 37.7836L30.12 37.8806L29.9274 37.9775V38.0745L25.8842 46.8001L23.285 37.008L41.7683 26.3433ZM27.7133 45.8306L30.7938 39.1409L33.2005 40.3044L27.7133 45.8306ZM56.5934 18.1024L45.8115 45.4428L31.564 38.2684L56.5934 18.1024ZM22.5149 36.1354L14.9097 35.5537L48.8921 20.8171L23.0925 35.8446L22.5149 36.1354Z" fill="white"/>
<path d="M20.4232 49.1591L10.1264 57.5791L10.886 58.5083L21.1828 50.0883L20.4232 49.1591Z" fill="white"/>
<path d="M21.4014 42.7294L12.9517 49.2949L13.688 50.2426L22.1378 43.677L21.4014 42.7294Z" fill="white"/>
</svg>
